<svg xmlns="http://www.w3.org/2000/svg" xmlns:xlink="http://www.w3.org/1999/xlink" width="314" height="87" viewBox="0 0 314 87"><defs><linearGradient id="a" x1="4.085" y1="-0.626" x2="4.263" y2="1.359" gradientUnits="objectBoundingBox"><stop offset="0" stop-color="#6c5bff"/><stop offset="0" stop-color="#fca311"/><stop offset="0.3" stop-color="#fca311"/><stop offset="0.63" stop-color="#e85d04"/><stop offset="0.66" stop-color="#e85d04"/><stop offset="1" stop-color="#3014a4"/></linearGradient><linearGradient id="b" x1="2.985" y1="-0.124" x2="3.147" y2="1.029" xlink:href="#a"/><linearGradient id="c" x1="1.742" y1="-0.285" x2="1.875" y2="1.165" xlink:href="#a"/><linearGradient id="d" x1="0.656" y1="-0.285" x2="0.776" y2="1.165" xlink:href="#a"/><linearGradient id="e" x1="-0.359" y1="-0.315" x2="-0.238" y2="1.19" xlink:href="#a"/><linearGradient id="f" x1="-1.451" y1="-0.315" x2="-1.322" y2="1.191" xlink:href="#a"/><linearGradient id="g" x1="-3.288" y1="-0.609" x2="-3.111" y2="1.377" xlink:href="#a"/></defs><g transform="translate(-113 -260)"><g transform="translate(112.538 264.948)"><g transform="translate(0.462 -4.71)"><text transform="translate(0 68.762)" font-size="71" font-family="Montserrat-ExtraBoldItalic, Montserrat" font-weight="800" font-style="italic"><tspan x="0" y="0">&lt;</tspan><tspan y="0" letter-spacing="-0.02em">/</tspan><tspan y="0" letter-spacing="-0.01em">C</tspan><tspan y="0">ODE&gt;</tspan></text><path d="M38.484,10.79l-2,10.806L11.5,30.3l21.316,9.257-1.74,9.414L1.16,35.638,3.3,24.067Z" transform="translate(0.448 16.288)" fill="url(#a)"/><path d="M59.529,1.75,30.8,67.454H18.62L47.383,1.75Z" transform="translate(13.369 9.598)" fill="url(#b)"/><path d="M79.838,8.022a25.439,25.439,0,0,1,8.892,6.543L78.968,24.831a15.957,15.957,0,0,0-5.22-4.994,11.832,11.832,0,0,0-6.142-1.827,12.32,12.32,0,0,0-6.664,1.931,13.92,13.92,0,0,0-4.924,5.325,15.4,15.4,0,0,0-1.74,7.465,13.712,13.712,0,0,0,1.357,6.177,10.58,10.58,0,0,0,3.846,4.3,10.058,10.058,0,0,0,5.568,1.583A14.965,14.965,0,0,0,71.4,43.171a24.517,24.517,0,0,0,6.212-4.263L85.284,48.1a34.8,34.8,0,0,1-10.58,7.1,29.233,29.233,0,0,1-11.745,2.662,24.952,24.952,0,0,1-12.494-3.08A22.2,22.2,0,0,1,41.957,46.3a24.691,24.691,0,0,1-3.045-12.32A27.058,27.058,0,0,1,42.9,19.524a27.841,27.841,0,0,1,10.841-10.2A31.1,31.1,0,0,1,68.771,5.621a26.762,26.762,0,0,1,11.067,2.4Z" transform="translate(28.383 12.461)" fill="url(#c)"/><path d="M111.137,8.694a22.168,22.168,0,0,1,8.839,8.422,23.7,23.7,0,0,1,3.149,12.18,27.11,27.11,0,0,1-4.02,14.495,28.485,28.485,0,0,1-10.945,10.3A31.321,31.321,0,0,1,92.9,57.868a26.623,26.623,0,0,1-12.911-3.08A22.5,22.5,0,0,1,71.151,46.3,24.048,24.048,0,0,1,68,33.995a26.936,26.936,0,0,1,4.02-14.46,28.1,28.1,0,0,1,10.945-10.2,31.825,31.825,0,0,1,15.26-3.706,26.762,26.762,0,0,1,12.911,3.063ZM90.431,20.022a14.808,14.808,0,0,0-5.22,5.429,15.138,15.138,0,0,0-1.931,7.534,13.607,13.607,0,0,0,1.549,6.351,11.745,11.745,0,0,0,4.054,4.489,9.744,9.744,0,0,0,5.533,1.74,12.059,12.059,0,0,0,6.647-2.088,14.46,14.46,0,0,0,4.907-5.5,16.182,16.182,0,0,0,1.74-7.639,14.13,14.13,0,0,0-1.357-6.247,10.753,10.753,0,0,0-3.811-4.42A9.623,9.623,0,0,0,97.1,18.056,12.65,12.65,0,0,0,90.431,20.022Z" transform="translate(49.912 12.467)" fill="url(#d)"/><path d="M143.927,9.011a19.036,19.036,0,0,1,8.23,7.969,22.064,22.064,0,0,1,2.4,11.885,27.841,27.841,0,0,1-15.9,24.152A35.219,35.219,0,0,1,122.82,56.5H100.06l9.971-50.322h20.881a27.667,27.667,0,0,1,13.016,2.836Zm-7.291,12.18a9.762,9.762,0,0,0-7.8-3.289h-6.177l-5.22,26.849h8.178a12.372,12.372,0,0,0,6.682-1.879,13.92,13.92,0,0,0,4.89-5.22,17.627,17.627,0,0,0,2.071-7.743,11.919,11.919,0,0,0-2.627-8.665Z" transform="translate(73.639 12.864)" fill="url(#e)"/><path d="M180.505,17.654H154.213l-1.566,7.9h23.839l-2.3,11.484H150.35L148.7,45.008h26.988l-2.3,11.484H131.54L141.58,6.17H182.8Z" transform="translate(96.936 12.869)" fill="url(#f)"/><path d="M159.26,48.552l2.018-10.771,24.987-8.7-21.333-9.274,1.74-9.4,29.877,13.277-2.158,11.554Z" transform="translate(117.451 16.007)" fill="url(#g)"/></g></g></g></svg>